<?xml version="1.0" encoding="UTF-8" standalone="no"?>
<svg
   xmlns:dc="http://purl.org/dc/elements/1.1/"
   xmlns:cc="http://creativecommons.org/ns#"
   xmlns:rdf="http://www.w3.org/1999/02/22-rdf-syntax-ns#"
   xmlns:svg="http://www.w3.org/2000/svg"
   xmlns="http://www.w3.org/2000/svg"
   xmlns:xlink="http://www.w3.org/1999/xlink"
   viewBox="0 0 1920 932"
   height="932"
   width="1920"
   version="1.1"
   id="svg2">
  <metadata
     id="metadata8">
    <rdf:RDF>
      <cc:Work
         rdf:about="">
        <dc:format>image/svg+xml</dc:format>
        <dc:type
           rdf:resource="http://purl.org/dc/dcmitype/StillImage" />
        <dc:title></dc:title>
      </cc:Work>
    </rdf:RDF>
  </metadata>
  <defs
     id="defs6">
    <linearGradient
       id="linearGradient4140">
      <stop
         id="stop4142"
         offset="0"
         style="stop-color:#fff;stop-opacity:1" />
      <stop
         id="stop4144"
         offset="1"
         style="stop-color:#fff;stop-opacity:0.9" />
    </linearGradient>
    <linearGradient
       gradientUnits="userSpaceOnUse"
       y2="923.31201"
       x2="937.49371"
       y1="5.1152635"
       x1="939.63336"
       id="linearGradient4146"
       xlink:href="#linearGradient4140" />
  </defs>
  <path
     id="path4138"
     d="m 3.1578948e-5,466.00001 0,-466.0000147368421 959.999968421052,0 960,0 L 1920,466.00001 l 0,466 -960,0 -959.999968421052,0 0,-466 z M 1344.5,463.00001 l 0,-144.5 -384.5,0 -384.5,0 -0.25697,143.5 c -0.14134,78.925 -0.0427,144.0631 0.2191,144.7513 0.38022,0.9993 77.85646,1.2007 384.75698,1 l 384.28089,-0.2513 0,-144.5 z m -739.0383,113.7514 c -0.26212,-0.6883 -0.36074,-52.3264 -0.21915,-114.7514 l 0.25745,-113.5 354.5,0 354.5,0 0,114.5 0,114.5 -354.28085,0.2514 c -282.90018,0.2007 -354.37687,-7e-4 -354.75745,-1 z"
     style="fill:url(#linearGradient4146);fill-opacity:1;opacity:1" />
</svg>
